<svg width="24" height="24" viewBox="0 0 24 24" fill="none" xmlns="http://www.w3.org/2000/svg">
<path fill-rule="evenodd" clip-rule="evenodd" d="M13.9999 2C14.5303 2 15.039 2.21071 15.4141 2.58579C15.7892 2.96086 15.9999 3.46957 15.9999 4H16.9999C17.5303 4 18.039 4.21071 18.4141 4.58579C18.7892 4.96086 18.9999 5.46957 18.9999 6V9.003C19.2701 9.01722 19.5345 9.0861 19.7773 9.20549C20.0201 9.32488 20.2362 9.49228 20.4124 9.69757C20.5886 9.90286 20.7213 10.1418 20.8025 10.3998C20.8838 10.6579 20.9118 10.9298 20.8849 11.199L20.1749 18.299C20.1007 19.0392 19.7543 19.7254 19.2027 20.2245C18.6511 20.7236 17.9338 21 17.1899 21H6.80988C6.06601 21 5.34867 20.7236 4.79709 20.2245C4.2455 19.7254 3.89902 19.0392 3.82488 18.299L3.11488 11.199C3.08799 10.9298 3.11601 10.6579 3.19722 10.3998C3.27844 10.1418 3.41118 9.90286 3.58739 9.69757C3.76361 9.49228 3.97965 9.32488 4.22244 9.20549C4.46522 9.0861 4.7297 9.01722 4.99988 9.003V5C4.99988 4.46957 5.2106 3.96086 5.58567 3.58579C5.96074 3.21071 6.46945 3 6.99988 3H7.99988C8.53031 3 9.03902 3.21071 9.41409 3.58579C9.78917 3.96086 9.99988 4.46957 9.99988 5H10.9999V4C10.9999 3.46957 11.2106 2.96086 11.5857 2.58579C11.9607 2.21071 12.4694 2 12.9999 2H13.9999ZM6.75988 11H5.10488L5.81488 18.1L5.83388 18.215C5.87861 18.418 5.98546 18.602 6.13959 18.7414C6.29372 18.8808 6.48746 18.9688 6.69388 18.993L6.80988 19H17.1899L17.3069 18.993C17.5133 18.9688 17.707 18.8808 17.8612 18.7414C18.0153 18.602 18.1222 18.418 18.1669 18.215L18.1849 18.099L18.8949 11H17.2399L17.2209 11.01C17.1882 11.0336 17.1607 11.0635 17.1399 11.098C16.6059 11.9837 15.852 12.7163 14.9514 13.2248C14.0508 13.7332 13.0341 14.0003 11.9999 14C10.9657 14.0003 9.94894 13.7332 9.04834 13.2248C8.14775 12.7163 7.39388 11.9837 6.85988 11.098C6.83946 11.0633 6.81226 11.033 6.77988 11.009L6.75988 11ZM13.9999 4H12.9999V11.874L13.2619 11.797C13.4352 11.7397 13.6022 11.6713 13.7629 11.592L13.9999 11.465V4ZM10.9999 7H9.99988V11.465L10.2369 11.592C10.3982 11.6713 10.5649 11.7397 10.7369 11.797L10.9999 11.874V7ZM16.9999 6H15.9999V9.425L16.1449 9.324C16.3439 9.196 16.5679 9.099 16.8129 9.046L16.9999 9.014V6ZM7.99988 5H6.99988V9.014C7.31888 9.052 7.60688 9.164 7.85488 9.324L7.99988 9.425V5Z" fill="#004AAD"/>
</svg>
